<svg xmlns="http://www.w3.org/2000/svg" viewBox="0 0 64 64" role="img" aria-label="EhParkLeh"><rect width="64" height="64" rx="15" fill="#1e1b4b"/>
  <g fill="#eae7f5">
    <rect x="9.5" y="8" width="45" height="3.2" rx="1.1"/>
    <rect x="9.5" y="18" width="45" height="2.8" rx="1"/>
  </g>
  <g fill="#c9c4e0">
    <rect x="10" y="8" width="3.2" height="21.5" rx="1"/>
    <rect x="30.4" y="8" width="3.2" height="21.5" rx="1"/>
    <rect x="50.8" y="8" width="3.2" height="21.5" rx="1"/>
  </g>
  <g fill="#FBBF24">
    <rect x="12.5" y="14.4" width="39" height="2.2" rx="0.8"/>
    <rect x="12.5" y="24.4" width="39" height="2.2" rx="0.8"/>
  </g>
  <rect x="8" y="52" width="48" height="2.8" rx="1.4" fill="#eae7f5"/>
  <rect x="11.5" y="29.5" width="2.8" height="22.5" rx="1" fill="#c9c4e0"/>
  <rect x="49.7" y="29.5" width="2.8" height="22.5" rx="1" fill="#c9c4e0"/>
  <rect x="9.5" y="29" width="45" height="5.8" rx="1.7" fill="#FBBF24"/>
  <g fill="#1b1533">
    <rect x="12.3" y="29" width="2.3" height="5.8"/><rect x="16" y="29" width="2.3" height="5.8"/>
    <rect x="45.7" y="29" width="2.3" height="5.8"/><rect x="49.4" y="29" width="2.3" height="5.8"/>
  </g>
  <path d="M25.5 33.2 l1.6-2.4 1.6 2.4 z" fill="#1b1533"/>
  <text x="35.5" y="33.7" text-anchor="middle" font-family="'Helvetica Neue',Arial,sans-serif" font-weight="800" font-size="6.4" fill="#1b1533" letter-spacing=".3">IN</text>
  <path d="M17.8 51.5 V47.5 Q17.8 46.6 18.9 46.45 L30.5 45 Q31.8 44.62 33.4 44.55 L36.2 44.65 Q37.3 44.72 38.1 45.42 L44.2 47.32 L46.2 47.72 Q47.4 47.9 47.5 48.8 L47.5 51.5 Z" fill="#e01330"/>
  <path d="M18.4 51.5 v-1.15 h28.6 v1.15 z" fill="#a50e23"/>
  <path d="M31.9 46 L33.4 45.02 Q33.7 44.85 34.4 44.85 L36 44.92 Q37 44.98 37.6 45.62 L39.6 46 Z" fill="#141626"/>
  <path d="M25.6 49.6 L31 48.2 L31.3 49.1 L25.9 50.5 Z" fill="#8a0c1d"/>
  <rect x="18.1" y="46.9" width="1.7" height="1.2" rx="0.3" fill="#ffd0d0" opacity="0.85"/>
  <rect x="46" y="48" width="1.4" height="1" rx="0.3" fill="#ffe9c2"/>
  <circle cx="24" cy="51.5" r="3.1" fill="#14121f"/><circle cx="24" cy="51.5" r="1.3" fill="#d3d6e2"/><circle cx="24" cy="51.5" r="0.5" fill="#e01330"/>
  <circle cx="42.2" cy="51.5" r="3.1" fill="#14121f"/><circle cx="42.2" cy="51.5" r="1.3" fill="#d3d6e2"/><circle cx="42.2" cy="51.5" r="0.5" fill="#e01330"/>
</svg>